<?xml version="1.0" encoding="utf-8"?>
<!-- Generator: Adobe Illustrator 23.0.3, SVG Export Plug-In . SVG Version: 6.00 Build 0)  -->
<svg version="1.1" id="Calque_1" xmlns="http://www.w3.org/2000/svg" xmlns:xlink="http://www.w3.org/1999/xlink" x="0px" y="0px"
	 viewBox="0 0 316.2 49.7" style="enable-background:new 0 0 316.2 49.7;" xml:space="preserve">
<style type="text/css">
	.st0{fill:#FFFFFF;}
</style>
<g>
	<g>
		<path class="st0" d="M7.1,21.2c2.3-1.4,4.5-2.2,7.3-2.2c7.6,0,14,5.8,14,13.5c0,8.1-6.2,14.2-14.2,14.2c-4.5,0-9-2.5-11.4-6.3
			L0,41.6c3,5,8.4,8,14.2,8c9.7,0,17.3-7.2,17.3-17.1c0-9.2-7-16.5-16.3-16.5c-1.2,0-2.4,0.1-3.6,0.5l4-13.1h16V0.6H13.3L7.1,21.2z
			 M74.5,0C60.9,0,49.6,11.2,49.6,24.8c0,13.6,11.4,24.8,24.8,24.8s24.8-11.2,24.8-24.8C99.3,11.2,87.9,0,74.5,0z M74.5,46.8
			c-11.9,0-21.8-10-21.8-21.9c0-11.9,9.8-21.9,21.8-21.9c11.9,0,21.8,10,21.8,21.9C96.2,36.7,86.3,46.8,74.5,46.8z M103.4,24.9
			c0,13.5,11.6,24.8,24.9,24.8c5.9,0,11.4-2.2,15.9-6v-4.2c-3.6,4.4-10.5,7.4-16.1,7.4c-5.6,0-11.4-2.8-15.4-6.7
			c-4-4-6.4-9.3-6.4-14.9c0-11.9,9.8-22.3,21.8-22.3c5.9,0,12.4,3.1,16.1,7.6V6.3C140,2.3,134.2,0,128.4,0
			C114.8,0,103.4,11.2,103.4,24.9z M174.7,0.6h-27.8v2.9h12.4V49h3V3.5h12.4V0.6z M197.5,0c-13.5,0-24.8,11.2-24.8,24.8
			c0,13.6,11.4,24.8,24.8,24.8c13.5,0,24.8-11.2,24.8-24.8C222.3,11.2,211,0,197.5,0z M197.5,46.8c-11.9,0-21.8-10-21.8-21.9
			c0-11.9,9.8-21.9,21.8-21.9c11.9,0,21.8,10,21.8,21.9C219.3,36.7,209.4,46.8,197.5,46.8z M247.1,23.4c3.8-2.2,5.5-5.5,5.5-9.9
			c0-3.8-1.1-7.4-4-10c-2.9-2.6-6.3-2.8-9.9-2.8h-9.6V49h12.3c4.3,0,7.8-0.6,11.2-3.5c3-2.6,4.4-6.1,4.4-10
			C257,29.4,253,24.6,247.1,23.4z M232.1,3.5h5.3c2.8,0,5.8,0,8.2,1.5c2.7,1.7,3.9,4.8,3.9,8c0,3.3-0.8,5.8-3.6,7.8
			c-2.7,2-5.3,1.8-8.6,1.8h-5.3V3.5z M249.2,44.3c-2.9,2-6.4,1.9-9.8,1.9h-7.3V25.5h6.7c3.2,0,7.2,0.1,10.1,1.5c3.2,1.6,5,5.1,5,8.7
			C253.9,39.3,252.1,42.3,249.2,44.3z M285.7,13.5c0-4.1-1.4-8-4.8-10.4c-3.2-2.4-7-2.4-10.9-2.4h-6V49h3V26.1h1.5L284.1,49h3.5
			L272,26.1C279.9,26.2,285.7,21.9,285.7,13.5z M267,23.2V3.5h2c2.8,0,6-0.1,8.6,1.1c3.4,1.5,5.1,5.1,5.1,8.7c0,2.9-1.1,5.8-3.4,7.6
			c-2.4,2.1-5.4,2.2-8.4,2.2H267z M316.2,3.5V0.6h-22.9V49h22.9v-2.9h-19.8V24h19.3v-2.9h-19.3V3.5H316.2z"/>
	</g>
</g>
</svg>
